<?xml version="1.0" standalone="no"?><!DOCTYPE svg PUBLIC "-//W3C//DTD SVG 1.1//EN" "http://www.w3.org/Graphics/SVG/1.1/DTD/svg11.dtd"><svg t="1727367708359" class="icon" viewBox="0 0 1024 1024" version="1.1" xmlns="http://www.w3.org/2000/svg" p-id="2247" xmlns:xlink="http://www.w3.org/1999/xlink" width="200" height="200"><path d="M1021.994667 236.586667c-9.642667 39.936-16.981333 61.994667-52.010667 95.914666-11.52 11.221333-27.989333 18.005333-44.672 44.501334a261.973333 261.973333 0 0 1-75.264 74.666666c-56.448 36.906667-119.509333 57.002667-184.405333 72.618667-30.378667 7.338667-61.653333 9.642667-92.16 16.298667-36.864 7.978667-71.296 23.808-107.52 33.92-23.466667 6.528-95.573333 16.981333-154.410667 1.834666-41.984-10.88-76.928-42.026667-88.917333-59.008-19.498667-27.605333-29.994667-74.965333-9.002667-99.925333 10.666667-12.757333 4.778667-19.797333 1.834667-35.498667-11.733333-61.781333 40.32-117.333333 102.570666-109.141333 10.666667 1.365333 17.493333-1.152 24.32-8.533333 11.733333-12.672 31.146667-22.698667 51.114667-21.674667 43.008 3.968 58.709333 19.968 80 49.92 5.248 7.296 11.221333 13.056 20.053333 14.677333 23.893333 4.352 46.165333 22.058667 53.845334 46.293334 8.832 27.861333-0.981333 64.938667-32 76.928-8.021333 4.010667-6.912 5.12-11.008 17.024-9.984 29.013333-47.744 36.821333-78.890667 26.752-2.176-0.682667-2.858667-0.128-4.992 0.213333-23.210667 3.882667-43.946667-11.093333-49.024-34.176-4.138667-18.986667 5.973333-32.725333 14.805333-47.189333 2.133333-3.541333 7.253333-7.552 9.514667-6.442667 4.693333 2.261333 0.298667 6.912-1.024 10.24-7.466667 18.858667 2.816 37.717333 21.632 36.778667 19.114667-1.024 38.997333-5.76 48.085333-24.149334 9.045333-18.432 4.266667-40.789333-9.002666-54.954666-29.013333-31.018667-94.122667-34.432-128.554667-2.602667-19.925333 18.389333-24.32 43.562667-18.346667 72.533333 9.002667 28.586667 23.893333 48.64 48 64.938667 47.530667 32.128 100.224 33.834667 155.861334 34.986667 46.293333 0.981333 98.645333-6.101333 143.914666-15.957334 61.653333-13.44 97.066667-24.746667 151.893334-57.002666 27.946667-16.512 89.216-66.389333 84.906666-72.96-4.352-6.528-38.997333 18.005333-66.005333 18.005333-57.301333 0-98.858667-7.424-135.253333-54.528-11.776-15.274667-20.906667-32.213333-31.445334-48.256-16.384-24.832-39.509333-39.082667-68.266666-45.397333-29.44-6.485333-58.709333-4.394667-87.850667 1.322666-11.434667 2.261333-20.650667 1.536-27.562667-9.557333a149.930667 149.930667 0 0 0-24.32-29.44c-21.376-19.413333-75.562667-44.672-134.869333-46.976-52.053333-2.005333-99.072 16-110.933333 20.992-55.936 29.994667-95.274667 82.602667-98.005334 154.282667-0.725333 18.986667-8.362667 31.829333-26.24 39.722666-28.586667 12.629333-48.298667 34.56-60.928 63.018667a249.685333 249.685333 0 0 0-19.754666 131.242667c6.442667 57.472 26.453333 108.373333 70.997333 147.114666 28.288 24.576 60.501333 40.704 99.114667 42.026667 28.501333 0.938667 54.698667-7.210667 80.597333-17.493333 17.621333-6.954667 18.005333-6.954667 25.173333 10.154666 14.72 35.2 38.186667 62.122667 72.362667 79.573334a235.093333 235.093333 0 0 0 129.066667 25.344c29.994667-2.56 57.344-13.226667 80.128-33.792 38.997333-35.2 44.416-81.450667 42.538666-130.005334-0.426667-11.221333-2.133333-22.4-3.285333-34.005333a32.597333 32.597333 0 0 1 4.224 0.64c3.029333 1.024 6.058667 2.005333 9.045333 3.114667 39.082667 13.994667 78.762667 20.992 120.32 12.842666 97.621333-19.2 126.549333-107.349333 115.968-176.085333-1.109333-7.253333-4.778667-9.386667-11.733333-7.253333-10.666667 3.2-20.053333 9.813333-26.624 18.773333-8.661333 11.690667-16.810667 23.808-25.173333 35.754667-17.621333 25.386667-37.888 48.213333-64.853334 64-27.264 16-56.576 21.12-87.04 11.136-24.746667-8.064-30.165333-27.562667-14.933333-48.469334 5.845333-8.021333 13.013333-14.165333 22.101333-17.92 12.970667-5.504 30.549333-1.664 38.229334 7.978667 4.352 5.546667 4.821333 11.093333 0 16.341333-5.12 5.546667-10.752 10.197333-18.986667 5.845334a5.802667 5.802667 0 0 1 3.754667-4.48c4.096-1.877333 8.277333-4.992 7.381333-9.386667-1.024-4.778667-6.314667-6.528-10.88-7.466667a28.074667 28.074667 0 0 0-29.354667 11.306667c-13.482667 17.792-6.698667 32.085333 16.512 37.76 20.266667 5.034667 34.986667 3.157333 54.186667-4.992 30.165333-12.8 51.84-35.626667 71.082667-61.269333 11.946667-15.914667 21.333333-33.706667 35.584-48 13.525333-13.610667 28.586667-22.186667 48-18.688 10.965333 2.005333 24.618667 3.498667 29.994666 2.986666 34.005333-2.986667 48.981333-18.730667 68.949334-38.997333 23.466667-23.808 46.506667-51.712 57.941333-90.88 15.786667-54.528 12.074667-117.589333 9.898667-119.765333z m-501.973334 372.138666c-0.341333 3.328-4.565333 2.645333-7.253333 2.56-70.784-3.114667-135.765333 18.432-199.68 45.696-41.045333 17.578667-83.370667 31.616-128.981333 30.848-62.08-0.981333-106.368-47.530667-104.533334-109.653333 0.426667-13.909333 3.413333-27.434667 11.733334-39.082667 13.397333-18.730667 32-25.002667 54.101333-20.906666 20.736 3.84 40.405333 25.216 44.586667 46.592 2.56 13.013333 1.664 25.301333-5.504 36.693333a26.794667 26.794667 0 0 1-26.965334 13.312 29.610667 29.610667 0 0 1-26.453333-21.504c-4.992-15.957333 9.6-30.976 26.88-27.392-1.152 3.754667-3.925333 3.925333-6.016 4.992-7.424 3.626667-11.861333 9.472-10.666667 17.792 1.28 9.258667 8.021333 13.994667 16.725334 15.189333 8.106667 1.194667 14.336-2.304 18.389333-9.514666 8.832-15.616 2.005333-42.709333-13.994667-55.722667-13.44-10.922667-28.714667-14.421333-44.672-7.765333-19.754667 8.234667-26.581333 25.856-27.306666 45.568-2.048 49.749333 27.392 98.986667 93.525333 100.821333 41.856 1.194667 80.768-11.989333 119.04-27.008 38.826667-15.232 77.013333-32.256 118.357333-39.850667 30.293333-5.589333 60.672-10.197333 91.605334-5.589333 2.816 0.426667 7.552-0.725333 7.04 3.925333z" fill="#CEAA6C" p-id="2248"></path><path d="M971.776 407.594667c0.384 3.541333-1.621333 4.778667-4.522667 5.76-0.384-3.541333 1.621333-4.821333 4.522667-5.76z" fill="#E8BD57" p-id="2249"></path></svg>